<svg xmlns="http://www.w3.org/2000/svg" viewBox="0 0 64 64">
  <defs>
    <linearGradient id="g" x1="10" x2="54" y1="8" y2="56" gradientUnits="userSpaceOnUse">
      <stop stop-color="#0f766e"/>
      <stop offset=".52" stop-color="#2563eb"/>
      <stop offset="1" stop-color="#172554"/>
    </linearGradient>
  </defs>
  <rect width="64" height="64" rx="16" fill="url(#g)"/>
  <path fill="#fff" d="M16 19h13.6c4.2 0 7.5 1.1 9.9 3.2 2.4 2.1 3.6 5.1 3.6 8.8s-1.2 6.7-3.6 8.8c-2.4 2.1-5.7 3.2-9.9 3.2H16V19Zm7.5 6v13h5.6c2 0 3.6-.6 4.7-1.7 1.1-1.1 1.7-2.9 1.7-5.3s-.6-4.2-1.7-5.3c-1.1-1.1-2.7-1.7-4.7-1.7h-5.6Z"/>
  <path fill="#f8fafc" d="M42.4 19H49v25h-6.6V19Z" opacity=".92"/>
</svg>
